<svg xmlns="http://www.w3.org/2000/svg" viewBox="0 0 546.97 242.72"><defs><style>.cls-1{fill:#ffebc0;}.cls-2,.cls-6,.cls-8{fill:#f4a22b;}.cls-2{opacity:0.49;}.cls-3,.cls-4,.cls-5,.cls-9{fill:none;stroke-miterlimit:10;}.cls-3,.cls-4{stroke:#fddc78;}.cls-3{stroke-width:4px;}.cls-4{stroke-width:6px;}.cls-5{stroke:#f4a22b;stroke-width:5px;}.cls-7{fill:#fddc78;}.cls-8{opacity:0.81;}.cls-9{stroke:#fff;stroke-linecap:round;stroke-width:2px;}.cls-10{fill:#fff;}</style></defs><title>Asset 1</title><g id="Layer_2" data-name="Layer 2"><g id="Layer_1-2" data-name="Layer 1"><path class="cls-1" d="M515,195.43c-21,15.15-49.7,18.33-74.52,21.09-37.34,4.14-63.64-.36-83.43-2.35-97.42-9.76-120.61,33.25-226.8,28.12-34.05-1.64-94.37-4.55-116.63-34.56-19.29-26-4-64.2,25.91-84.94,34-23.55,63.92-8.73,122.31-29.87C224.37,70.26,212.7,45,268.72,25c56.71-20.3,131.93-17.06,187.92,8.2,12.19,5.5,52.58,24.3,72.09,61.5C542.58,121.09,552.14,168.66,515,195.43Z"/><rect class="cls-2" x="283.01" y="67.72" width="131" height="98" rx="7.38"/><circle class="cls-3" cx="217.68" cy="208.22" r="12.61"/><circle class="cls-4" cx="457.01" cy="36.72" r="31"/><circle class="cls-5" cx="76.51" cy="170.22" r="19"/><circle class="cls-5" cx="529.01" cy="181.76" r="15.46"/><circle class="cls-6" cx="89.58" cy="221.99" r="4.43"/><circle class="cls-6" cx="504.26" cy="4.43" r="4.43"/><circle class="cls-7" cx="185.43" cy="32.14" r="4.43"/><circle class="cls-7" cx="9.43" cy="162.14" r="9.43"/><circle class="cls-6" cx="421.28" cy="188.91" r="5.74"/><rect class="cls-8" x="273.01" y="78.72" width="131" height="91" rx="7.38"/><line class="cls-9" x1="288.51" y1="93.72" x2="356.62" y2="93.72"/><line class="cls-9" x1="288.51" y1="113.05" x2="356.62" y2="113.05"/><line class="cls-9" x1="288.51" y1="132.38" x2="356.62" y2="132.38"/><line class="cls-9" x1="288.51" y1="151.72" x2="356.62" y2="151.72"/><path class="cls-10" d="M387,90.22l-8.54,8.56-5.55-5.56,1.46-1.45c1.35,1.35,2.7,2.71,4.06,4.06l7.19-7.17Z"/><path class="cls-10" d="M387,109.55l-8.54,8.56-5.55-5.55,1.46-1.46,4.06,4.07L385.6,108Z"/></g></g></svg>